# xmcd
# 
# Track frame offsets:
#     150
#     22785
#     46780
#     69915
#     90345
#     111922
#     135850
#     158150
#     178635
#     197060
#     220170
# 
# Disc length: 3243
# 
# Revision: 38
# Processed by: cddbd v1.5.2PL0 Copyright (c) Steve Scherf et al.
# Submitted via: fre:ac v1.0.17
# 
DISCID=800ca90b
DTITLE=鬼束ちひろ - インソムニア [SHM-CD]
DYEAR=2001
DGENRE=J-Pop
TTITLE0=月光
TTITLE1=イノセンス
TTITLE2=BACK DOOR (album version)
TTITLE3=edge
TTITLE4=We can go
TTITLE5=call
TTITLE6=シャイン (album version)
TTITLE7=Cage
TTITLE8=螺旋
TTITLE9=眩暈
TTITLE10=月光 (album version)
EXTD=YEAR: 2001
EXTT0=
EXTT1=
EXTT2=
EXTT3=
EXTT4=
EXTT5=
EXTT6=
EXTT7=
EXTT8=
EXTT9=
EXTT10=
PLAYORDER=
